<svg xmlns="http://www.w3.org/2000/svg" width="null" height="null" viewBox="0 0 566.9 255.1"><style type="text/css"/><g transform="translate(0 0)"><rect class="bin" width="566.9" height="255.1" transform="translate(0 0)"/><g transform="translate(-23.70000079999999 102.30000310000004) rotate(270)"><polygon class="st0" points="88.9,191.3 88.5,189.2 88.4,187 88.4,184.8 88.7,182.6 89.2,180.4 89.9,178.3 90.9,176.4 91.1,175.6    91.1,174.9 90.9,174.2 90.3,173.3 89.6,172.6 88.8,172 87.9,171.6 87.1,171.3 86.4,170.9 85.7,170.5 85.1,170 84.5,169.5    83.9,168.9 83.3,168.3 82.9,167.6 82.4,166.9 82.1,166.2 81.7,165.4 81.5,164.6 80.4,160.6 79.3,156.6 78.4,152.5 77.5,148.5    76.8,144.4 76.1,140.3 75.5,136.2 74.9,132 74.5,127.9 74.2,123.7 73.9,119.6 73.7,115.4 88.4,115.4 90,115.2 91.4,114.5    92.7,113.5 93.6,112.2 94.2,110.7 94.4,109.1 94.2,107.4 93.6,105.9 92.7,104.6 91.4,103.6 90,103 88.4,102.8 85.3,102.8    86.8,98.4 86.9,97.6 86.7,96.9 85.9,96.1 80.3,94.4 79.5,93.9 79.1,93.3 79,92.7 79,85.5 80.1,85.1 80.5,83.9 80.1,82.8 79,82.3    78.8,79.2 78.9,76.1 79.2,73 79.7,70 80.4,67 81.4,64.1 82.6,61.2 84,58.5 85.6,55.9 87.3,53.4 89.3,51.1 91.4,49 92,48.2    92.2,47.3 69,39 67.1,39 67.1,36.7 69.3,35 70.7,33 71.2,31 70.7,28.9 69.3,26.9 67.1,25.2 64.1,23.9 63.1,23.7 63.1,124.2    54.5,124.2 54.5,23.7 53.5,23.9 50.6,25.2 48.3,26.9 46.9,28.9 46.4,31 46.9,33 48.3,35 50.6,36.7 50.6,39 48.7,39 25.5,47.3    25.7,48.2 26.2,49 28.3,51.1 30.3,53.4 32.1,55.9 33.7,58.5 35.1,61.2 36.3,64.1 37.2,67 38,70 38.5,73 38.8,76.1 38.8,79.2    38.7,82.3 37.6,82.8 37.1,83.9 37.6,85.1 38.7,85.5 38.7,92.7 38.5,93.3 38.1,93.9 37.3,94.4 31.7,96.1 30.9,96.9 30.7,97.6    30.8,98.4 32.3,102.8 29.2,102.8 27.7,103 26.2,103.6 25,104.6 24,105.9 23.4,107.4 23.2,109.1 23.4,110.7 24,112.2 25,113.5    26.2,114.5 27.7,115.2 29.2,115.4 43.9,115.4 43.8,119.6 43.5,123.7 43.1,127.9 42.7,132 42.2,136.2 41.6,140.3 40.9,144.4    40.1,148.5 39.3,152.5 38.3,156.6 37.3,160.6 36.2,164.6 35.9,165.4 35.6,166.2 35.2,166.9 34.8,167.6 34.3,168.3 33.8,168.9    33.2,169.5 32.6,170 31.9,170.5 31.2,170.9 30.5,171.3 29.8,171.6 28.9,172 28,172.6 27.3,173.3 26.8,174.2 26.5,174.9 26.5,175.6    26.8,176.4 27.7,178.3 28.4,180.4 28.9,182.6 29.2,184.8 29.3,187 29.1,189.2 28.7,191.3 28.1,193.5 27.3,195.5 26.3,197.4    25.1,199.2 23.7,200.9 17.1,208.1 16.5,209 16,210 15.6,211 15.4,212.1 15.3,213.2 15.4,214.3 15.6,215.4 16,216.4 16.5,217.4    17.1,218.3 17.8,219.1 19.5,219.1 19.5,224.7 25.1,224.7 25.1,233.2 38.6,233.2 38.6,224.7 52.1,224.7 52.1,233.2 66.9,233.2    66.9,224.7 79,224.7 79,233.2 92.5,233.2 92.5,224.7 98.1,224.7 98.1,219.1 99.8,219.1 100.5,218.3 101.2,217.4 101.6,216.4    102,215.4 102.2,214.3 102.3,213.2 102.2,212.1 102,211 101.6,210 101.2,209 100.5,208.1 93.9,200.9 92.5,199.2 91.3,197.4    90.3,195.5 89.5,193.5  "/></g><g transform="translate(249.5127665 -42.2806126) rotate(90)"><polygon class="st0" points="131.1,93 131.9,93 132.6,93.1 133.3,93.3 134,93.7 134.7,94.1 135.3,94.6 135.8,95.1 136.3,95.8    136.6,96.5 136.9,97.2 137.1,98 137.3,99.6 137.6,100.9 138,102.2 138.8,103.8 139.1,109.2 139.2,114.6 139.2,120 139,125.4    138.6,130.8 138,136.1 137.3,141.5 136.3,146.8 135.2,152.1 133.9,157.3 132.5,162.5 130.8,167.6 128.9,171.5 127.7,172.1    126.7,172.8 125.9,173.8 125.7,174.5 125.7,175.1 125.9,175.8 126.1,176.8 127.1,178.7 127.8,180.8 128.3,183 128.6,185.2    128.6,187.4 128.5,189.6 128.1,191.7 127.5,193.9 126.7,195.9 125.7,197.8 124.5,199.6 123.1,201.3 116.5,208.5 115.9,209.4    115.4,210.4 115,211.4 114.8,212.5 114.7,213.6 114.8,214.7 115,215.8 115.4,216.8 115.9,217.8 116.5,218.7 117.2,219.5    118.9,219.5 118.9,225.1 124.5,225.1 124.5,233.6 138,233.6 138,225.1 151.4,225.1 151.4,233.6 166.3,233.6 166.3,225.1    178.4,225.1 178.4,233.6 191.9,233.6 191.9,225.1 197.5,225.1 197.5,219.5 199.2,219.5 199.9,218.7 200.5,217.8 201,216.8    201.4,215.8 201.6,214.7 201.7,213.6 201.6,212.5 201.4,211.4 201,210.4 200.5,209.4 199.9,208.5 193.3,201.3 191.9,199.6    190.7,197.8 189.7,195.9 188.9,193.9 188.3,191.7 187.9,189.6 187.7,187.4 187.8,185.2 188.1,183 188.6,180.8 189.3,178.7    190.2,176.8 190.4,175.8 190.7,175.1 190.7,174.5 190.4,173.8 189.7,172.8 188.6,172.1 187.4,171.5 185.5,167.6 183.9,162.5    182.4,157.3 181.1,152.1 180,146.8 179.1,141.5 178.3,136.1 177.7,130.8 177.4,125.4 177.1,120 177.1,114.6 177.3,109.2    177.6,103.8 178.4,102.2 178.8,100.9 179.1,99.6 179.2,98 179.4,97.2 179.7,96.5 180.1,95.8 180.5,95.1 181.1,94.6 181.7,94.1    182.3,93.7 183,93.3 183.7,93.1 184.5,93 185.2,93 186.5,92.8 187.6,92.1 188.3,90.9 188.6,89.6 189.4,87 189.7,82.1 190.8,67.3    177.3,67.3 177.3,85.4 162.5,85.4 162.5,155.3 153.9,155.3 153.9,85.4 139.1,85.4 139.1,67.3 125.6,67.3 127,87 127.8,89.6    128,90.9 128.7,92.1 129.8,92.8  "/></g><g transform="translate(233.60000609999997 -66.38161740000001) rotate(90)"><polyline class="st0" points="306.6,211.4 306.3,210.4 305.8,209.4 305.2,208.5 298.6,201.3 297.2,199.6 296,197.8 295,195.9    294.1,193.9 293.5,191.7 293.2,189.6 293,187.4 293.1,185.2 293.3,183 293.9,180.8 294.6,178.7 295.5,176.8 295.7,176 295.7,175.3    295.5,174.6 294.9,173.7 294.2,173 293.4,172.4 292.5,172 291.8,171.7 291.1,171.3 290.4,170.9 289.7,170.4 289.1,169.9    288.5,169.3 288,168.7 287.5,168 287.1,167.3 286.7,166.6 286.4,165.8 286.1,165 285,161 284,157 283,152.9 282.2,148.9    281.4,144.8 280.7,140.7 280.1,136.6 279.6,132.4 279.1,128.3 278.8,124.1 278.5,120 278.4,115.8 293.1,115.8 294.6,115.6    296.1,114.9 297.3,113.9 298.3,112.6 298.9,111.1 299.1,109.5 298.9,107.8 298.3,106.3 297.3,105 296.1,104 294.6,103.4    293.1,103.2 289.9,103.2 291.5,98.8 291.6,98 291.4,97.3 290.5,96.5 285,94.8 284.2,94.3 283.8,93.7 283.6,93.1 283.6,85.9    284.7,85.5 285.2,84.3 284.7,83.2 283.6,82.7 283.4,79.6 283.5,76.5 283.8,73.4 284.3,70.4 285.1,67.4 286,64.5 287.2,61.6    288.6,58.9 290.2,56.3 292,53.8 293.9,51.5 296.1,49.4 296.6,48.6 296.8,47.7 296.3,46.2 296.1,45.9 294.4,45 292.6,44.1 289,42.6    285.4,41.3 281.6,40.4 274,39.4 271.7,39.4 271.7,37.1 274,35.4 275.4,33.4 275.9,31.4 275.4,29.3 274,27.3 271.7,25.6 268.8,24.3    265.3,23.5 263.5,23.3 261.6,23.5 258.2,24.3 255.2,25.6 253,27.3 251.6,29.3 251.1,31.4 251.6,33.4 253,35.4 255.2,37.1    255.2,39.4 252.9,39.4 245.3,40.4 241.5,41.3 237.9,42.6 234.3,44.1 232.6,45 230.9,45.9 230.6,46.2 230.1,47.7 230.3,48.6    230.9,49.4 233,51.5 234.9,53.8 236.7,56.3 238.3,58.9 239.7,61.6 240.9,64.5 241.9,67.4 242.6,70.4 243.1,73.4 243.4,76.5    243.5,79.6 243.3,82.7 242.2,83.2 241.8,84.3 242.2,85.5 243.3,85.9 243.3,93.1 243.2,93.7 242.8,94.3 242,94.8 236.4,96.5    235.6,97.3 235.3,98 235.4,98.8 237,103.2 233.9,103.2 232.3,103.4 230.9,104 229.6,105 228.7,106.3 228.1,107.8 227.9,109.5    228.1,111.1 228.7,112.6 229.6,113.9 230.9,114.9 232.3,115.6 233.9,115.8 248.6,115.8 248.4,120 248.1,124.1 247.8,128.3    247.3,132.4 246.8,136.6 246.2,140.7 245.5,144.8 244.7,148.9 243.9,152.9 242.9,157 241.9,161 240.8,165 240.5,165.8 240.2,166.6    239.8,167.3 239.4,168 238.9,168.7 238.4,169.3 237.8,169.9 237.2,170.4 236.6,170.9 235.9,171.3 235.1,171.7 234.4,172    233.5,172.4 232.7,173 232,173.7 231.4,174.6 231.2,175.3 231.2,176 231.4,176.8 232.3,178.7 233.1,180.8 233.6,183 233.9,185.2    233.9,187.4 233.8,189.6 233.4,191.7 232.8,193.9 232,195.9 231,197.8 229.7,199.6 228.4,201.3 221.8,208.5 221.1,209.4    220.6,210.4 220.3,211.4 220.1,212.5 220,213.6 220.1,214.7 220.3,215.8 220.6,216.8 221.1,217.8 221.8,218.7 222.5,219.5    224.2,219.5 224.2,225.1 229.8,225.1 229.8,233.6 243.2,233.6 243.2,225.1 259.2,225.1 259.2,124.3 267.8,124.3 267.8,225.1    283.7,225.1 283.7,233.6 297.1,233.6 297.1,225.1 302.8,225.1 302.8,219.5 304.4,219.5 305.2,218.7 305.8,217.8 306.3,216.8    306.6,215.8  "/></g><g transform="translate(589.984987 316.40000919999994) rotate(180)"><polygon class="st0" points="364.7,225.1 364.7,155 356.1,155 356.1,225.1 340.2,225.1 340.2,233.6 326.8,233.6 326.8,225.1    321.1,225.1 321.1,219.5 319.5,219.5 318.7,218.7 318.1,217.8 317.6,216.8 317.3,215.8 317,214.7 317,213.6 317,212.5 317.3,211.4    317.6,210.4 318.1,209.4 318.7,208.5 325.3,201.3 326.7,199.6 327.9,197.8 328.9,195.9 329.8,193.9 330.4,191.7 330.7,189.6    330.9,187.4 330.8,185.2 330.5,183 330,180.8 329.3,178.7 328.4,176.8 328.2,175.8 327.9,175.1 327.9,174.5 328.2,173.8 329,172.8    330,172.1 331.2,171.5 333.1,167.6 334.7,162.5 336.2,157.3 337.5,152.1 338.6,146.8 339.5,141.5 340.3,136.1 340.9,130.8    341.3,125.4 341.5,120 341.5,114.6 341.3,109.2 341,103.8 340.2,102.2 339.8,100.9 339.6,99.6 339.4,98 339.2,97.2 338.9,96.5    338.5,95.8 338.1,95.1 337.5,94.6 336.9,94.1 336.3,93.7 335.6,93.3 334.9,93.1 334.1,93 333.4,93 332.1,92.8 331,92.1 330.3,90.9    330,89.6 329.2,87 328.9,82.1 327.9,67.3 341.3,67.3 341.3,85.4 379.5,85.4 379.5,67.3 393,67.3 391.7,87 390.8,89.6 390.6,90.9    389.9,92.1 388.8,92.8 387.5,93 386.7,93 386,93.1 385.3,93.3 384.6,93.7 383.9,94.1 383.3,94.6 382.8,95.1 382.3,95.8 382,96.5    381.7,97.2 381.5,98 381.3,99.6 381,100.9 380.6,102.2 379.9,103.8 379.5,109.2 379.4,114.6 379.4,120 379.6,125.4 380,130.8    380.6,136.1 381.3,141.5 382.3,146.8 383.4,152.1 384.7,157.3 386.1,162.5 387.8,167.6 389.7,171.5 390.9,172.1 391.9,172.8    392.7,173.8 392.9,174.5 392.9,175.1 392.7,175.8 392.5,176.8 391.5,178.7 390.8,180.8 390.3,183 390,185.2 390,187.4 390.1,189.6    390.5,191.7 391.1,193.9 391.9,195.9 392.9,197.8 394.1,199.6 395.5,201.3 402.1,208.5 402.8,209.4 403.3,210.4 403.6,211.4    403.8,212.5 403.9,213.6 403.8,214.7 403.6,215.8 403.3,216.8 402.8,217.8 402.1,218.7 401.4,219.5 399.7,219.5 399.7,225.1    394.1,225.1 394.1,233.6 380.6,233.6 380.6,225.1  "/></g></g></svg>